<?xml version="1.0" encoding="UTF-8"?>
<svg version="1.1" xmlns="http://www.w3.org/2000/svg" width="500" height="500">
<path d="M0 0 C165 0 330 0 500 0 C500 165 500 330 500 500 C335 500 170 500 0 500 C0 335 0 170 0 0 Z " fill="#550065" transform="translate(0,0)"/>
<path d="M0 0 C14.23125 -0.061875 28.4625 -0.12375 43.125 -0.1875 C47.5917627 -0.21481201 52.05852539 -0.24212402 56.66064453 -0.27026367 C62.18334961 -0.28381348 62.18334961 -0.28381348 64.7819519 -0.28633118 C66.56802626 -0.29088936 68.35409233 -0.30133768 70.1401062 -0.31672668 C93.34889741 -0.50642456 116.19263913 3.83997408 133.75 20.1875 C145.65258708 32.79274428 149.62785221 47.49134813 149.40039062 64.38037109 C148.92989356 78.75928419 144.84458438 90.86809259 134.125 100.9375 C129.74619063 104.63128091 125.15722074 107.52104607 120 110 C120.75023437 110.32871094 121.50046875 110.65742188 122.2734375 110.99609375 C133.94863325 116.42197188 142.29236588 123.35285912 148 135 C148.4125 135.74894531 148.825 136.49789062 149.25 137.26953125 C154.59865487 148.76542488 153.91184549 165.44492183 149.875 177.3125 C147.52536762 183.27593317 144.71558106 188.77526262 141 194 C140.55011719 194.63292969 140.10023438 195.26585937 139.63671875 195.91796875 C127.86294426 210.94196831 107.41180705 217.1146684 89.27197266 219.60742188 C80.44136197 220.54948027 71.49128711 220.20285176 62.625 220.125 C60.61719199 220.11494474 58.60937908 220.10582342 56.6015625 220.09765625 C51.73415143 220.07757617 46.86743688 220.03839345 42 220 C42 206.8 42 193.6 42 180 C60.5 179.75 60.5 179.75 66.22851562 179.70214844 C79.02492231 179.50389981 92.38186924 178.93092098 103 171 C108.4464507 165.09967841 109.46676961 159.85627914 109.3125 152.0078125 C108.6197564 145.34015537 105.8963342 141.43241999 100.75607109 137.2245388 C97.86102357 135.20577199 94.70846781 134.17993263 91.34985352 133.23168945 C90.61266618 133.02114331 89.87547884 132.81059717 89.11595249 132.59367085 C80.27243091 130.27790452 71.48829131 130.26789525 62.40234375 130.29296875 C60.79136318 130.28039688 59.1803983 130.26562327 57.56945801 130.24865723 C51.69229017 130.20179209 45.81484697 130.19702494 39.9375 130.1875 C20.1684375 130.0946875 20.1684375 130.0946875 0 130 C0 87.1 0 44.2 0 0 Z " fill="#FDFDFD" transform="translate(134,131)"/>
<path d="M0 0 C0.89762054 -0.00014603 1.79524109 -0.00029205 2.72006226 -0.0004425 C5.6960489 0.00025586 8.67197347 0.00804472 11.64794922 0.01586914 C13.70775315 0.01773359 15.76755753 0.01915737 17.82736206 0.02015686 C23.25581074 0.02397991 28.68423277 0.03380841 34.1126709 0.04486084 C39.64916626 0.05507951 45.18566591 0.05965546 50.72216797 0.06469727 C61.59066927 0.07543084 72.45915078 0.09250474 83.32763672 0.11352539 C83.32763672 1.10352539 83.32763672 2.09352539 83.32763672 3.11352539 C53.29763672 3.11352539 23.26763672 3.11352539 -7.67236328 3.11352539 C-7.66076172 14.14145508 -7.64916016 25.16938477 -7.63720703 36.53149414 C-7.63206166 43.77303086 -7.62720279 51.01456614 -7.62353516 58.25610352 C-7.61594309 73.74275517 -7.61594309 73.74275517 -7.60070419 89.22940063 C-7.52497053 150.53469306 -8.06535599 211.80578914 -8.67236328 273.11352539 C58.64763672 273.11352539 125.96763672 273.11352539 195.32763672 273.11352539 C195.32763672 260.57352539 195.32763672 248.03352539 195.32763672 235.11352539 C199.28763672 234.12352539 203.24763672 233.13352539 207.32763672 232.11352539 C214.24288683 228.43706331 218.90220905 224.75129041 221.32763672 217.11352539 C222.41900035 209.71758795 221.7607652 203.26652981 217.32763672 197.11352539 C216.51746094 196.32655273 216.51746094 196.32655273 215.69091797 195.52368164 C214.32763672 194.11352539 214.32763672 194.11352539 214.32763672 192.11352539 C205.69264961 187.7571355 197.86576352 185.56195846 188.25732422 184.54711914 C182.19858958 183.87861065 176.12234245 183.04509397 170.32763672 181.11352539 C170.16908203 180.09774414 170.01052734 179.08196289 169.84716797 178.03540039 C166.63589797 158.61858423 159.20947767 145.87524353 143.32763672 134.11352539 C143.89611328 133.72422852 144.46458984 133.33493164 145.05029297 132.93383789 C156.92531888 124.32989591 163.99850692 111.52879112 166.32763672 97.11352539 C166.58198075 94.02289987 166.6135421 90.96324983 166.57763672 87.86352539 C166.57376953 87.0452124 166.56990234 86.22689941 166.56591797 85.38378906 C166.46869246 78.48955557 165.68834841 71.88063621 164.32763672 65.11352539 C179.05715942 56.73791444 198.04337026 55.39767878 214.36938477 59.6027832 C226.74510132 63.26945358 236.20298259 69.02012007 245.32763672 78.11352539 C245.97732422 78.74000977 246.62701172 79.36649414 247.29638672 80.01196289 C256.13057457 89.19486869 261.57113347 103.2300421 261.39794922 115.94946289 C261.38779785 116.92189941 261.37764648 117.89433594 261.3671875 118.89624023 C261.35413574 119.62794434 261.34108398 120.35964844 261.32763672 121.11352539 C255.79175139 121.13817314 250.25589772 121.15636035 244.7199707 121.16845703 C242.83519942 121.17349783 240.95043207 121.18033037 239.06567383 121.18896484 C236.36262036 121.20104156 233.65961841 121.20675608 230.95654297 121.21118164 C230.10862686 121.21634293 229.26071075 121.22150421 228.38710022 121.2268219 C226.36692603 121.22701734 224.34685738 121.1755875 222.32763672 121.11352539 C220.75297448 119.53886315 220.90560883 117.65970078 220.57763672 115.48852539 C219.31074617 109.1900128 217.45667453 105.29168952 212.11669922 101.57446289 C203.61058977 97.00210977 193.49016413 96.26319909 184.25732422 99.03540039 C176.70757445 102.50603163 172.6243074 107.51006209 169.32763672 115.11352539 C168.27780091 122.57610823 168.40469668 129.7987605 172.65576172 136.21118164 C179.43672777 143.92690703 187.2579043 145.43412556 197.02685547 146.52758789 C217.39590687 148.81876374 235.84488383 154.75347135 249.57763672 170.80102539 C260.69200137 185.53036522 263.64719859 203.08545717 262.32763672 221.11352539 C261.67513147 224.94817579 260.65598992 228.46344182 259.32763672 232.11352539 C258.94478516 233.33555664 258.94478516 233.33555664 258.55419922 234.58227539 C253.87629668 248.14390111 243.4007933 259.06369558 230.95263672 265.80102539 C221.14223469 270.46043202 209.31021289 274.69433471 198.32763672 274.11352539 C198.32763672 274.77352539 198.32763672 275.43352539 198.32763672 276.11352539 C130.01763672 276.11352539 61.70763672 276.11352539 -8.67236328 276.11352539 C-8.67236328 275.45352539 -8.67236328 274.79352539 -8.67236328 274.11352539 C-9.66236328 274.11352539 -10.65236328 274.11352539 -11.67236328 274.11352539 C-11.70558691 260.67603806 -11.72414627 247.23854871 -11.73486328 233.80102539 C-11.7357193 232.73592491 -11.73657532 231.67082443 -11.73745728 230.57344818 C-11.77268813 180.4607228 -11.47875691 130.35011454 -11.17236328 80.23852539 C-11.16638957 79.26029171 -11.16041585 78.28205802 -11.15426111 77.27418089 C-10.9991224 51.8872603 -10.83855507 26.50037599 -10.67236328 1.11352539 C-7.35484735 -0.54523258 -3.64639275 -0.01536764 0 0 Z " fill="#FDFCFD" transform="translate(121.67236328125,105.886474609375)"/>
<path d="M0 0 C0.82359009 -0.00554901 1.64718018 -0.01109802 2.49572754 -0.01681519 C5.21673989 -0.02861534 7.93608644 -0.00431075 10.65698242 0.02148438 C12.5620669 0.02319724 14.46715373 0.023128 16.37223816 0.0213623 C20.37127159 0.02301642 24.36974514 0.04171358 28.36865234 0.07324219 C33.45088666 0.1126237 38.53237795 0.11732222 43.6147356 0.10977936 C47.55548189 0.10667985 51.49606673 0.11893971 55.4367733 0.13591003 C57.30752228 0.14286275 59.17828958 0.14607414 61.04905128 0.1452179 C87.2517994 0.16341935 112.62882707 5.57241065 131.93432617 24.59570312 C145.15811366 38.46976627 148.17780718 55.56554611 147.90698242 73.95507812 C147.50406374 86.35162541 141.81568576 100.10043862 133.25463867 109.21679688 C130.57072666 111.63096899 127.71206752 113.62723759 124.69995117 115.61523438 C125.25682617 116.01613281 125.81370117 116.41703125 126.38745117 116.83007812 C138.35691063 125.74651667 146.64886448 136.65987831 150.23120117 151.37304688 C151.88683297 162.82450014 151.55453283 174.65521907 147.69995117 185.61523438 C147.34803711 186.63101563 146.99612305 187.64679688 146.63354492 188.69335938 C143.98980981 195.63861729 140.53896064 201.01756665 135.69995117 206.61523438 C134.9394043 207.59621094 134.17885742 208.5771875 133.39526367 209.58789062 C130.73121742 212.78072493 127.59741581 215.00890396 124.07495117 217.17773438 C123.45668457 217.56340576 122.83841797 217.94907715 122.20141602 218.34643555 C99.83994486 232.048968 75.15233019 232.9570883 49.63745117 232.74023438 C42.72807617 232.69898438 35.81870117 232.65773438 28.69995117 232.61523438 C28.69995117 215.45523438 28.69995117 198.29523438 28.69995117 180.61523438 C52.94995117 180.42773438 52.94995117 180.42773438 60.52905273 180.4074707 C77.95374069 180.5875359 77.95374069 180.5875359 92.91186523 172.62231445 C96.00801281 169.14696911 96.60589201 165.66869702 97.01245117 161.11523438 C96.5330999 155.74650015 94.83423605 152.80485022 91.13745117 148.92773438 C84.611415 143.90765025 76.17079183 143.16884507 68.21118164 143.18286133 C67.32214645 143.17266968 66.43311127 143.16247803 65.51713562 143.15197754 C62.61707043 143.12210096 59.71733686 143.11262072 56.81713867 143.10351562 C54.79117761 143.08665011 52.7652269 143.06849738 50.73928833 143.04911804 C45.43594598 143.00181526 40.13264558 142.97187863 34.8291626 142.94567871 C29.40579953 142.91577326 23.98258076 142.86927742 18.55932617 142.82421875 C7.93961029 142.73841021 -2.68013546 142.6709655 -13.30004883 142.61523438 C-13.41684892 124.83907317 -13.50502057 107.06301156 -13.55910969 89.28654957 C-13.58489175 81.03261806 -13.62004204 72.77892497 -13.67724609 64.52514648 C-13.72708133 57.33115994 -13.75933984 50.13734607 -13.7704913 42.94319171 C-13.77700998 39.13381908 -13.79232984 35.3249404 -13.82869911 31.51572609 C-13.86266111 27.9295571 -13.87310178 24.34408507 -13.86558723 20.75777054 C-13.86761667 18.81560117 -13.89451103 16.87350757 -13.92214966 14.93153381 C-13.87245268 6.5470537 -13.87245268 6.5470537 -11.2833252 2.3321991 C-7.47003997 0.13753947 -4.28467406 -0.07376505 0 0 Z M-7.30004883 6.61523438 C-7.30004883 49.51523438 -7.30004883 92.41523438 -7.30004883 136.61523438 C18.92044738 136.74598524 18.92044738 136.74598524 45.14111328 136.82299805 C50.26940918 136.8638916 50.26940918 136.8638916 52.68751526 136.88935852 C54.3383893 136.90224171 55.98935602 136.9057552 57.64027405 136.90119934 C66.75038297 136.88314342 75.24970758 137.33355119 84.04980469 139.84692383 C84.73500403 140.0403773 85.42020338 140.23383078 86.12616634 140.43314648 C91.95130321 142.2922175 97.16688065 145.62257402 100.07495117 151.17773438 C102.73782257 157.09646955 102.8206024 163.79368778 101.00463867 169.98632812 C98.31608344 175.96215048 94.02189206 179.82988748 87.94995117 182.30273438 C76.58244035 185.9505177 65.41154685 186.03333174 53.57495117 186.24023438 C47.34620117 186.36398437 41.11745117 186.48773438 34.69995117 186.61523438 C34.69995117 199.81523437 34.69995117 213.01523437 34.69995117 226.61523438 C40.49469552 226.68489515 46.28793083 226.74438195 52.08276367 226.7800293 C54.04537942 226.79492186 56.00796309 226.81524271 57.97045898 226.84155273 C83.22879517 227.1711779 108.3310741 224.17335648 128.22729492 207.02539062 C138.78374957 196.73576579 144.85627208 182.0401535 145.08032227 167.37963867 C145.17328626 154.02525369 145.17328626 154.02525369 140.69995117 141.61523438 C140.25264648 140.75027344 139.8053418 139.8853125 139.34448242 138.99414062 C133.21941822 127.94275133 124.4897173 121.0835977 112.69995117 116.61523438 C113.31741211 116.27492188 113.93487305 115.93460937 114.57104492 115.58398438 C127.28328672 108.30878968 136.23913964 99.51827571 140.63745117 85.17773438 C144.33833573 67.57540218 142.26721476 49.68401296 132.67260742 34.36523438 C124.57915534 23.08248137 113.99944916 16.60851252 101.19995117 11.80273438 C100.42925293 11.51253418 99.65855469 11.22233398 98.86450195 10.92333984 C86.11360957 6.37615647 73.74402521 6.34378688 60.37573242 6.41992188 C58.63952768 6.4228683 56.90332114 6.42490504 55.16711426 6.42602539 C48.78219919 6.43644331 42.39732234 6.46436569 36.01245117 6.49023438 C14.57276367 6.55210937 14.57276367 6.55210937 -7.30004883 6.61523438 Z " fill="#0C0A0D" transform="translate(141.300048828125,124.384765625)"/>
<path d="M0 0 C5.836875 -0.061875 11.67375 -0.12375 17.6875 -0.1875 C19.50080811 -0.21481201 21.31411621 -0.24212402 23.18237305 -0.27026367 C35.8557824 -0.38213025 49.19656244 -0.14987506 59 9 C64.49479829 15.97416706 65.68800609 22.22792237 65 31 C63.60402488 36.52231334 60.68710245 41.37928261 55.765625 44.34765625 C47.48304911 48.65208584 40.6024832 50.30679 31.34765625 50.1953125 C30.54871948 50.19329834 29.74978271 50.19128418 28.92663574 50.18920898 C25.97186455 50.17882709 23.01717587 50.15090514 20.0625 50.125 C13.441875 50.08375 6.82125 50.0425 0 50 C0 33.5 0 17 0 0 Z " fill="#530063" transform="translate(176,170)"/>
<path d="M0 0 C0.89762054 -0.00014603 1.79524109 -0.00029205 2.72006226 -0.0004425 C5.6960489 0.00025586 8.67197347 0.00804472 11.64794922 0.01586914 C13.70775315 0.01773359 15.76755753 0.01915737 17.82736206 0.02015686 C23.25581074 0.02397991 28.68423277 0.03380841 34.1126709 0.04486084 C39.64916626 0.05507951 45.18566591 0.05965546 50.72216797 0.06469727 C61.59066927 0.07543084 72.45915078 0.09250474 83.32763672 0.11352539 C83.32763672 1.10352539 83.32763672 2.09352539 83.32763672 3.11352539 C53.29763672 3.11352539 23.26763672 3.11352539 -7.67236328 3.11352539 C-7.66076172 14.12985352 -7.64916016 25.14618164 -7.63720703 36.49633789 C-7.63136737 43.68066431 -7.62573525 50.86498908 -7.62158203 58.04931641 C-7.6210508 58.96515098 -7.62051956 59.88098555 -7.61997223 60.82457268 C-7.61612084 67.62922338 -7.61285075 74.43387426 -7.60986328 81.23852539 C-7.60942898 82.19952951 -7.60899467 83.16053363 -7.60854721 84.15065908 C-7.58662713 133.99473617 -7.6174575 183.83448781 -8.17236328 233.67602539 C-8.1843211 234.75105568 -8.19627892 235.82608597 -8.20859909 236.93369293 C-8.34777258 249.32717973 -8.50034383 261.72045013 -8.67236328 274.11352539 C-9.66236328 274.11352539 -10.65236328 274.11352539 -11.67236328 274.11352539 C-11.70558691 260.67603806 -11.72414627 247.23854871 -11.73486328 233.80102539 C-11.7357193 232.73592491 -11.73657532 231.67082443 -11.73745728 230.57344818 C-11.77268813 180.4607228 -11.47875691 130.35011454 -11.17236328 80.23852539 C-11.16638957 79.26029171 -11.16041585 78.28205802 -11.15426111 77.27418089 C-10.9991224 51.8872603 -10.83855507 26.50037599 -10.67236328 1.11352539 C-7.35484735 -0.54523258 -3.64639275 -0.01536764 0 0 Z " fill="#F1EBF2" transform="translate(121.67236328125,105.886474609375)"/>
<path d="M0 0 C5.836875 -0.061875 11.67375 -0.12375 17.6875 -0.1875 C19.50080811 -0.21481201 21.31411621 -0.24212402 23.18237305 -0.27026367 C35.8557824 -0.38213025 49.19656244 -0.14987506 59 9 C64.49479829 15.97416706 65.68800609 22.22792237 65 31 C63.60402488 36.52231334 60.68710245 41.37928261 55.765625 44.34765625 C47.48304911 48.65208584 40.6024832 50.30679 31.34765625 50.1953125 C30.54871948 50.19329834 29.74978271 50.19128418 28.92663574 50.18920898 C25.97186455 50.17882709 23.01717587 50.15090514 20.0625 50.125 C13.441875 50.08375 6.82125 50.0425 0 50 C0 33.5 0 17 0 0 Z M5 5 C5 18.2 5 31.4 5 45 C10.218125 45.061875 15.43625 45.12375 20.8125 45.1875 C22.43518799 45.21481201 24.05787598 45.24212402 25.72973633 45.27026367 C36.85279368 45.33376157 46.41105359 44.63795198 55.44140625 37.59765625 C58.99980497 33.9500746 59.31669874 30.62724836 59.375 25.625 C59.26616522 20.21953938 58.96300622 16.96300622 55 13 C44.73423014 4.61830084 32.43910767 4.58536177 19.8125 4.8125 C14.924375 4.874375 10.03625 4.93625 5 5 Z " fill="#030203" transform="translate(176,170)"/>
</svg>
